<svg xmlns="http://www.w3.org/2000/svg" xmlns:xlink="http://www.w3.org/1999/xlink" width="500" zoomAndPan="magnify" viewBox="0 0 375 374.999991" height="500" preserveAspectRatio="xMidYMid meet" version="1.0"><defs><g/><clipPath id="aa832efd97"><path d="M 56.488281 151.464844 L 318.167969 151.464844 L 318.167969 223.464844 L 56.488281 223.464844 Z M 56.488281 151.464844 " clip-rule="nonzero"/></clipPath><clipPath id="e50e2a9b97"><path d="M 63.558594 158.238281 L 187.332031 158.238281 L 187.332031 216.761719 L 63.558594 216.761719 Z M 63.558594 158.238281 " clip-rule="nonzero"/></clipPath></defs><g clip-path="url(#aa832efd97)"><path stroke-linecap="butt" transform="matrix(0.75, 0, 0, 0.75, 56.489269, 151.465449)" fill="none" stroke-linejoin="miter" d="M -0.00131672 -0.000807338 L 348.904956 -0.000807338 L 348.904956 96.092949 L -0.00131672 96.092949 Z M -0.00131672 -0.000807338 " stroke="#000000" stroke-width="6" stroke-opacity="1" stroke-miterlimit="4"/></g><g clip-path="url(#e50e2a9b97)"><path fill="#000000" d="M 63.558594 158.238281 L 187.238281 158.238281 L 187.238281 216.761719 L 63.558594 216.761719 Z M 63.558594 158.238281 " fill-opacity="1" fill-rule="nonzero"/></g><g fill="#ffffff" fill-opacity="1"><g transform="translate(80.458321, 196.618259)"><g><path d="M 11.578125 0.359375 C 10.128906 0.359375 8.796875 0.109375 7.578125 -0.390625 C 6.367188 -0.898438 5.316406 -1.609375 4.421875 -2.515625 C 3.535156 -3.421875 2.847656 -4.492188 2.359375 -5.734375 C 1.867188 -6.984375 1.625 -8.347656 1.625 -9.828125 C 1.625 -11.304688 1.867188 -12.664062 2.359375 -13.90625 C 2.847656 -15.15625 3.535156 -16.234375 4.421875 -17.140625 C 5.316406 -18.054688 6.367188 -18.765625 7.578125 -19.265625 C 8.796875 -19.773438 10.128906 -20.03125 11.578125 -20.03125 C 13.128906 -20.03125 14.554688 -19.742188 15.859375 -19.171875 C 17.160156 -18.597656 18.273438 -17.78125 19.203125 -16.71875 C 20.128906 -15.664062 20.804688 -14.421875 21.234375 -12.984375 L 18.59375 -12.984375 C 18.09375 -14.398438 17.21875 -15.515625 15.96875 -16.328125 C 14.726562 -17.148438 13.289062 -17.5625 11.65625 -17.5625 C 10.195312 -17.5625 8.90625 -17.234375 7.78125 -16.578125 C 6.65625 -15.921875 5.769531 -15.007812 5.125 -13.84375 C 4.476562 -12.6875 4.15625 -11.347656 4.15625 -9.828125 C 4.15625 -8.316406 4.476562 -6.976562 5.125 -5.8125 C 5.769531 -4.65625 6.65625 -3.75 7.78125 -3.09375 C 8.90625 -2.4375 10.195312 -2.109375 11.65625 -2.109375 C 13.320312 -2.109375 14.800781 -2.535156 16.09375 -3.390625 C 17.382812 -4.253906 18.285156 -5.425781 18.796875 -6.90625 L 21.40625 -6.90625 C 21.007812 -5.445312 20.335938 -4.171875 19.390625 -3.078125 C 18.453125 -1.992188 17.3125 -1.148438 15.96875 -0.546875 C 14.632812 0.0546875 13.171875 0.359375 11.578125 0.359375 Z M 11.578125 0.359375 "/></g></g></g><g fill="#ffffff" fill-opacity="1"><g transform="translate(105.50483, 196.618259)"><g><path d="M 11.796875 0.359375 C 9.816406 0.359375 8.054688 -0.0703125 6.515625 -0.9375 C 4.984375 -1.8125 3.785156 -3.015625 2.921875 -4.546875 C 2.054688 -6.085938 1.625 -7.847656 1.625 -9.828125 C 1.625 -11.835938 2.054688 -13.601562 2.921875 -15.125 C 3.785156 -16.65625 4.984375 -17.851562 6.515625 -18.71875 C 8.054688 -19.59375 9.816406 -20.03125 11.796875 -20.03125 C 13.804688 -20.03125 15.570312 -19.59375 17.09375 -18.71875 C 18.625 -17.851562 19.820312 -16.65625 20.6875 -15.125 C 21.5625 -13.601562 22 -11.835938 22 -9.828125 C 22 -7.847656 21.5625 -6.085938 20.6875 -4.546875 C 19.820312 -3.015625 18.625 -1.8125 17.09375 -0.9375 C 15.570312 -0.0703125 13.804688 0.359375 11.796875 0.359375 Z M 4.15625 -9.828125 C 4.15625 -8.316406 4.476562 -6.976562 5.125 -5.8125 C 5.769531 -4.65625 6.664062 -3.75 7.8125 -3.09375 C 8.96875 -2.4375 10.296875 -2.109375 11.796875 -2.109375 C 13.316406 -2.109375 14.644531 -2.4375 15.78125 -3.09375 C 16.925781 -3.75 17.820312 -4.65625 18.46875 -5.8125 C 19.113281 -6.976562 19.4375 -8.316406 19.4375 -9.828125 C 19.4375 -11.367188 19.113281 -12.710938 18.46875 -13.859375 C 17.820312 -15.015625 16.925781 -15.921875 15.78125 -16.578125 C 14.644531 -17.234375 13.316406 -17.5625 11.796875 -17.5625 C 10.296875 -17.5625 8.96875 -17.234375 7.8125 -16.578125 C 6.664062 -15.921875 5.769531 -15.015625 5.125 -13.859375 C 4.476562 -12.710938 4.15625 -11.367188 4.15625 -9.828125 Z M 4.15625 -9.828125 "/></g></g></g><g fill="#ffffff" fill-opacity="1"><g transform="translate(131.225213, 196.618259)"><g><path d="M 2.859375 0 L 2.859375 -19.671875 L 10.359375 -19.671875 C 11.734375 -19.671875 12.925781 -19.410156 13.9375 -18.890625 C 14.945312 -18.378906 15.734375 -17.65625 16.296875 -16.71875 C 16.859375 -15.78125 17.140625 -14.65625 17.140625 -13.34375 C 17.140625 -11.75 16.726562 -10.429688 15.90625 -9.390625 C 15.082031 -8.359375 13.945312 -7.660156 12.5 -7.296875 L 17.453125 0 L 14.46875 0 L 9.671875 -7.046875 L 5.34375 -7.046875 L 5.34375 0 Z M 5.34375 -9.40625 L 10.078125 -9.40625 C 11.523438 -9.40625 12.640625 -9.75 13.421875 -10.4375 C 14.210938 -11.125 14.609375 -12.09375 14.609375 -13.34375 C 14.609375 -14.601562 14.210938 -15.578125 13.421875 -16.265625 C 12.640625 -16.960938 11.523438 -17.3125 10.078125 -17.3125 L 5.34375 -17.3125 Z M 5.34375 -9.40625 "/></g></g></g><g fill="#ffffff" fill-opacity="1"><g transform="translate(152.481187, 196.618259)"><g><path d="M 2.859375 0 L 2.859375 -19.671875 L 9.53125 -19.671875 C 11.007812 -19.671875 12.296875 -19.394531 13.390625 -18.84375 C 14.484375 -18.300781 15.328125 -17.539062 15.921875 -16.5625 C 16.523438 -15.582031 16.828125 -14.414062 16.828125 -13.0625 C 16.828125 -11.71875 16.523438 -10.550781 15.921875 -9.5625 C 15.328125 -8.582031 14.484375 -7.820312 13.390625 -7.28125 C 12.296875 -6.738281 11.007812 -6.46875 9.53125 -6.46875 L 5.34375 -6.46875 L 5.34375 0 Z M 5.34375 -8.765625 L 9.46875 -8.765625 C 12.6875 -8.765625 14.296875 -10.1875 14.296875 -13.03125 C 14.296875 -15.882812 12.6875 -17.3125 9.46875 -17.3125 L 5.34375 -17.3125 Z M 5.34375 -8.765625 "/></g></g></g><g fill="#000000" fill-opacity="1"><g transform="translate(210.335562, 196.769512)"><g><path d="M 9.125 0.421875 C 6.582031 0.421875 4.585938 -0.179688 3.140625 -1.390625 C 1.703125 -2.597656 0.984375 -4.257812 0.984375 -6.375 L 6.46875 -6.375 C 6.46875 -5.625 6.695312 -5.035156 7.15625 -4.609375 C 7.613281 -4.191406 8.242188 -3.984375 9.046875 -3.984375 C 9.734375 -3.984375 10.273438 -4.117188 10.671875 -4.390625 C 11.066406 -4.660156 11.265625 -5.039062 11.265625 -5.53125 C 11.265625 -6.613281 10.082031 -7.390625 7.71875 -7.859375 C 3.320312 -8.703125 1.125 -10.773438 1.125 -14.078125 C 1.125 -15.929688 1.789062 -17.394531 3.125 -18.46875 C 4.46875 -19.550781 6.300781 -20.09375 8.625 -20.09375 C 10.238281 -20.09375 11.640625 -19.816406 12.828125 -19.265625 C 14.015625 -18.722656 14.929688 -17.953125 15.578125 -16.953125 C 16.222656 -15.953125 16.546875 -14.773438 16.546875 -13.421875 L 11.203125 -13.421875 C 11.203125 -14.171875 10.988281 -14.742188 10.5625 -15.140625 C 10.132812 -15.535156 9.523438 -15.734375 8.734375 -15.734375 C 8.078125 -15.734375 7.550781 -15.597656 7.15625 -15.328125 C 6.769531 -15.054688 6.578125 -14.675781 6.578125 -14.1875 C 6.578125 -13.675781 6.835938 -13.253906 7.359375 -12.921875 C 7.878906 -12.585938 8.769531 -12.28125 10.03125 -12 C 12.425781 -11.46875 14.171875 -10.703125 15.265625 -9.703125 C 16.359375 -8.703125 16.90625 -7.390625 16.90625 -5.765625 C 16.90625 -3.828125 16.222656 -2.3125 14.859375 -1.21875 C 13.492188 -0.125 11.582031 0.421875 9.125 0.421875 Z M 9.125 0.421875 "/></g></g></g><g fill="#000000" fill-opacity="1"><g transform="translate(228.281889, 196.769512)"><g><path d="M 10.53125 0.421875 C 8.769531 0.421875 7.242188 0.0820312 5.953125 -0.59375 C 4.660156 -1.28125 3.660156 -2.257812 2.953125 -3.53125 C 2.253906 -4.8125 1.90625 -6.332031 1.90625 -8.09375 L 1.90625 -19.671875 L 7.578125 -19.671875 L 7.578125 -8.453125 C 7.578125 -6.078125 8.5625 -4.890625 10.53125 -4.890625 C 12.5 -4.890625 13.484375 -6.078125 13.484375 -8.453125 L 13.484375 -19.671875 L 19.125 -19.671875 L 19.125 -8.09375 C 19.125 -6.332031 18.773438 -4.8125 18.078125 -3.53125 C 17.390625 -2.257812 16.40625 -1.28125 15.125 -0.59375 C 13.84375 0.0820312 12.3125 0.421875 10.53125 0.421875 Z M 10.53125 0.421875 "/></g></g></g><g fill="#000000" fill-opacity="1"><g transform="translate(249.345656, 196.769512)"><g><path d="M 2.078125 0 L 2.078125 -19.671875 L 7.75 -19.671875 L 7.75 0 Z M 2.078125 0 "/></g></g></g><g fill="#000000" fill-opacity="1"><g transform="translate(259.175416, 196.769512)"><g><path d="M 6.765625 0 L 6.765625 -14.40625 L 0.78125 -14.40625 L 0.78125 -19.671875 L 18.40625 -19.671875 L 18.40625 -14.40625 L 12.421875 -14.40625 L 12.421875 0 Z M 6.765625 0 "/></g></g></g><g fill="#000000" fill-opacity="1"><g transform="translate(278.357481, 196.769512)"><g><path d="M 2.078125 0 L 2.078125 -19.671875 L 15.5625 -19.671875 L 15.5625 -15.09375 L 7.703125 -15.09375 L 7.703125 -12.21875 L 14.8125 -12.21875 L 14.8125 -7.671875 L 7.703125 -7.671875 L 7.703125 -4.640625 L 15.875 -4.640625 L 15.875 0 Z M 2.078125 0 "/></g></g></g></svg>